<svg id="Capa_1" enable-background="new 0 0 512 512" height="512" viewBox="0 0 512 512" width="512" xmlns="http://www.w3.org/2000/svg"><g><g><path d="m357.017 50.508h-53.11v-32.906c-.001-9.706-7.897-17.602-17.602-17.602h-60.609c-9.705 0-17.602 7.896-17.602 17.602v32.907h-53.11c-15.275 0-27.703 12.428-27.703 27.703v319.548c0 4.142 3.357 7.5 7.5 7.5s7.5-3.358 7.5-7.5v-269.622h227.439v40.17c0 4.142 3.357 7.5 7.5 7.5s7.5-3.358 7.5-7.5v-90.097c0-15.275-12.428-27.703-27.703-27.703zm-133.923-32.906c0-1.435 1.167-2.602 2.602-2.602h60.609c1.435 0 2.602 1.167 2.602 2.602v32.907h-65.813zm-80.814 95.536v-34.927c0-7.004 5.698-12.703 12.703-12.703h202.033c7.005 0 12.703 5.699 12.703 12.703v34.927z"/><path d="m377.22 195.857c-4.143 0-7.5 3.358-7.5 7.5v280.94c0 7.004-5.698 12.703-12.703 12.703h-202.034c-7.005 0-12.703-5.699-12.703-12.703v-51.506c0-4.142-3.357-7.5-7.5-7.5s-7.5 3.358-7.5 7.5v51.506c0 15.275 12.428 27.703 27.703 27.703h202.033c15.275 0 27.703-12.428 27.703-27.703v-280.94c.001-4.142-3.357-7.5-7.499-7.5z"/><path d="m197.992 212.563v222.236c0 4.142 3.357 7.5 7.5 7.5h101.016c4.143 0 7.5-3.358 7.5-7.5v-222.236c0-4.142-3.357-7.5-7.5-7.5h-101.016c-4.142 0-7.5 3.358-7.5 7.5zm15 103.618v-22.039h86.016v22.039zm86.016 15v22.04h-86.016v-22.04zm-86.016 37.039h86.016v22.039h-86.016zm86.016-89.078h-86.016v-22.039h86.016zm-86.016 148.157v-22.04h86.016v22.04zm86.016-207.236v22.04h-86.016v-22.04z"/><path d="m256 144.453c-4.143 0-7.5 3.358-7.5 7.5v5.632h-5.632c-4.143 0-7.5 3.358-7.5 7.5s3.357 7.5 7.5 7.5h5.632v5.632c0 4.142 3.357 7.5 7.5 7.5s7.5-3.358 7.5-7.5v-5.632h5.632c4.143 0 7.5-3.358 7.5-7.5s-3.357-7.5-7.5-7.5h-5.632v-5.632c0-4.142-3.357-7.5-7.5-7.5z"/><path d="m237.817 465.685c-4.143 0-7.5 3.358-7.5 7.5s3.357 7.5 7.5 7.5h36.365c4.143 0 7.5-3.358 7.5-7.5s-3.357-7.5-7.5-7.5z"/></g></g></svg>