<?xml version="1.0" encoding="iso-8859-1"?>
<!-- Generator: Adobe Illustrator 19.0.0, SVG Export Plug-In . SVG Version: 6.00 Build 0)  -->
<svg version="1.1" id="Capa_1" xmlns="http://www.w3.org/2000/svg" xmlns:xlink="http://www.w3.org/1999/xlink" x="0px" y="0px"
	 viewBox="0 0 512 512" style="enable-background:new 0 0 512 512;" xml:space="preserve">
<g>
	<g>
		<circle cx="244.63" cy="115.38" r="29.789"/>
	</g>
</g>
<g>
	<g>
		<path d="M437.02,74.98C388.667,26.629,324.38,0,256,0S123.333,26.629,74.98,74.98C26.629,123.332,0,187.62,0,256
			s26.629,132.668,74.98,181.02C123.333,485.371,187.62,512,256,512s132.667-26.629,181.02-74.98
			C485.371,388.668,512,324.38,512,256S485.371,123.332,437.02,74.98z M256,482C131.383,482,30,380.617,30,256
			c0-56.922,21.161-108.988,56.019-148.767l107.45,107.449l-6.142,12.263l-39.545,21.301l14.227,26.412l47.934-25.819l5.874-11.809
			l12.126,12.126l3.906,44.135l-38.116,27.874l-30.253,92.156l28.504,9.357l27.244-82.992l15.71-11.488l41.614-30.432l6.816,6.816
			l54.997,117.679l27.179-12.702l-20.006-42.807l59.229,59.229C364.989,460.838,312.922,482,256,482z M425.981,404.767
			L308.315,287.102l-5.524-11.821l-5.36-79.856l21.903,25.342v48.136h30v-59.304l-55.311-64.966l-73.849,16.729l-12.547,25.052
			L107.232,86.02C147.011,51.162,199.078,30,256,30c124.617,0,226,101.383,226,226C482,312.922,460.839,364.988,425.981,404.767z"/>
	</g>
</g>
<g>
</g>
<g>
</g>
<g>
</g>
<g>
</g>
<g>
</g>
<g>
</g>
<g>
</g>
<g>
</g>
<g>
</g>
<g>
</g>
<g>
</g>
<g>
</g>
<g>
</g>
<g>
</g>
<g>
</g>
</svg>
