<?xml version="1.0"?>
<svg xmlns="http://www.w3.org/2000/svg" viewBox="0 0 512 512" width="512" height="512"><g id="Outline"><path d="M312,192h16.934a115.032,115.032,0,0,0,33.385-4.9l-4.638-15.313A99.062,99.062,0,0,1,328.934,176H312Z"/><path d="M300,144a12,12,0,1,0-12-12A12.013,12.013,0,0,0,300,144Z"/><path d="M372,144a12,12,0,1,0-12-12A12.013,12.013,0,0,0,372,144Z"/><path d="M56,368H88a8,8,0,0,0,8-8V328a8,8,0,0,0-8-8H56a8,8,0,0,0-8,8v32A8,8,0,0,0,56,368Zm8-32H80v16H64Z"/><path d="M120,368h32a8,8,0,0,0,8-8V328a8,8,0,0,0-8-8H120a8,8,0,0,0-8,8v32A8,8,0,0,0,120,368Zm8-32h16v16H128Z"/><path d="M184,368h32a8,8,0,0,0,8-8V328a8,8,0,0,0-8-8H184a8,8,0,0,0-8,8v32A8,8,0,0,0,184,368Zm8-32h16v16H192Z"/><path d="M184,432h32a8,8,0,0,0,8-8V392a8,8,0,0,0-8-8H184a8,8,0,0,0-8,8v32A8,8,0,0,0,184,432Zm8-32h16v16H192Z"/><path d="M460.388,296.352h-.007l-.143-.038-57.825-15.418-12.392-14.162a7.969,7.969,0,0,0-2.93-2.111c-.016-.007-.032-.012-.048-.018-.2-.084-.408-.16-.617-.227-.077-.024-.155-.04-.233-.063-.149-.042-.3-.087-.45-.121-.108-.024-.218-.038-.328-.058s-.243-.049-.366-.065c-.152-.02-.3-.028-.457-.04-.082-.006-.163-.018-.245-.021-.116,0-.232,0-.347,0V231.966A79.772,79.772,0,0,0,415.6,176h.4a32,32,0,0,0,0-64V64.984a33.741,33.741,0,0,0-37.468-33.541A62.156,62.156,0,0,0,337.373,16H304a48.053,48.053,0,0,0-48,48,7.971,7.971,0,0,0,2.57,5.863A64.841,64.841,0,0,0,256,88v24a32,32,0,1,0,0,64h.4a79.764,79.764,0,0,0,31.6,55.97v32.04c-.045,0-.091,0-.136,0-.068,0-.137,0-.206,0-.2.009-.4.029-.6.052-.035,0-.071,0-.107.01-.224.029-.447.069-.669.118l-.026,0a7.983,7.983,0,0,0-4.281,2.541l-12.338,14.1-16.37,4.018A23.911,23.911,0,0,0,232,272h-8V256H208v16H192V256H176v16H160V256H144v16H128V256H112v16H96V256H80v16H64V256H48v16H40a24.028,24.028,0,0,0-24,24V440a24.028,24.028,0,0,0,24,24h8v8a24.028,24.028,0,0,0,24,24H448a48.053,48.053,0,0,0,48-48s-.229-110.675-.67-113.289A47.97,47.97,0,0,0,460.388,296.352Zm-37.6,57.7-24.731,6.183a8,8,0,0,0-5.215,11.339l12.914,25.828L367.8,424h-11.52l45.654-124.014.638-1.632c.019-.048.037-.1.055-.145l.246-.631,10.168,2.711Zm-133.4-71.495,33.45,22.284-25.678,22.411ZM336,248a79.609,79.609,0,0,0,32-6.683v31.735l-32,21.333-32-21.333V241.316A79.6,79.6,0,0,0,336,248Zm24,87.546,8.926,7.785L360,367.583Zm28.725-46-1.746,4.743-.029.075c-.019.05-.039.1-.057.151L374.841,327.26,357.6,312.225c-.117-.115-.227-.233-.351-.34l-8.09-7.038,31.292-20.84,2.157-1.446,5.57,6.365Zm-76.725,46v32.009l-8.921-24.228Zm-56,36.7,4.385,1.1L256,382.112Zm0,37.52L264.9,416H256Zm28.539.454-18.3-12.815,12.914-25.827a8,8,0,0,0-5.215-11.339L256,355.754V300.667l13.376-2.454,16.773,45.477c.013.034.031.065.044.1l25.151,68.334A48.971,48.971,0,0,0,284.539,410.22ZM332.783,424,328,411.009V321.592l8-6.977,8,6.977v89.46L339.224,424ZM416,409.767V424H395.683ZM432,144a16.019,16.019,0,0,1-16,16V128A16.019,16.019,0,0,1,432,144ZM400,64.984V94.135a315.751,315.751,0,0,1-16-31.768V47.307a17.778,17.778,0,0,1,16,17.677ZM368,43.466V56H355.845l-19.2-24h.728A46.284,46.284,0,0,1,368,43.466ZM316.155,32l19.2,24H315.314L293.2,33.881C296.572,32.666,316.155,32,316.155,32ZM272,88a48.207,48.207,0,0,1,2.678-16h9.671A192.59,192.59,0,0,1,272,95.328Zm7.789-44.9,12.9,12.9H273.013A31.941,31.941,0,0,1,279.789,43.1ZM240,144a16.019,16.019,0,0,1,16-16v32A16.019,16.019,0,0,1,240,144Zm32,24V122.832c1.532-1.91,3.075-3.879,4.675-5.972l.067-.089a205.224,205.224,0,0,0,25-44.771H370.75c4.537,10.166,15.768,33.778,29.25,50.831V168a64,64,0,0,1-128,0ZM40,448a8.009,8.009,0,0,1-8-8V296a8.009,8.009,0,0,1,8-8h8v16H64V288H80v16H96V288h16v16h16V288h16v16h16V288h16v16h16V288h16v16h16V288h8a8.065,8.065,0,0,1,7.92,6.864v.1a7.886,7.886,0,0,0,.08,1.129V417.376A24,24,0,0,0,225.371,448H144v-8a23.889,23.889,0,0,0-1.376-8H152a8,8,0,0,0,8-8V392a8,8,0,0,0-8-8H120a8,8,0,0,0-8,8v24H96V392a8,8,0,0,0-8-8H56a8,8,0,0,0-8,8v32a7.972,7.972,0,0,0,2.346,5.659A23.844,23.844,0,0,0,48,440v8Zm88-32V400h16v16Zm16,48h49.376a23.944,23.944,0,0,0,0,16H144ZM64,416V400H80v16Zm64,64H72a8.009,8.009,0,0,1-8-8V440a8.009,8.009,0,0,1,8-8h48a8.009,8.009,0,0,1,8,8Zm80-8a8.009,8.009,0,0,1,8-8h48a8,8,0,0,0,0-16H248a8,8,0,0,1,0-16h24a8.005,8.005,0,0,0,4.438-1.344,32.82,32.82,0,0,1,37.837,1.051L320,436v44H216A8.009,8.009,0,0,1,208,472Zm128-32h16v40H336Zm144,8a32.036,32.036,0,0,1-32,32H368V440h56a8,8,0,0,0,8-8V392H420.944l-9.329-18.657,22.325-5.582a8,8,0,0,0,5.932-9.189l-9.745-53.728,26.145,6.969A31.974,31.974,0,0,1,480,342.72Z"/></g></svg>
