<svg id="Capa_1" enable-background="new 0 0 512 512" height="512" viewBox="0 0 512 512" width="512" xmlns="http://www.w3.org/2000/svg"><g><path d="m172.818 350.271c-3.998 1.114-6.336 5.258-5.222 9.256l22.144 79.471c1.757 6.306 7.336 10.543 13.882 10.543s12.125-4.237 13.882-10.543l22.144-79.471c1.114-3.998-1.223-8.142-5.222-9.256-4-1.117-8.142 1.224-9.256 5.222l-21.549 77.332-21.548-77.332c-1.114-3.998-5.256-6.335-9.255-5.222z"/><path d="m255.629 357.557v84.468c0 4.15 3.364 7.491 7.515 7.491s7.515-3.388 7.515-7.539v-84.42c0-4.15-3.365-7.515-7.515-7.515s-7.515 3.365-7.515 7.515z"/><path d="m297.543 349.919c-4.15 0-7.515 3.365-7.515 7.515v84.591c0 4.15 3.365 7.515 7.515 7.515s7.515-3.365 7.515-7.515v-28.706h7.922c17.48 0 31.7-14.221 31.7-31.701 0-17.479-14.221-31.7-31.7-31.7h-15.437zm32.108 31.7c0 9.193-7.478 16.671-16.671 16.671h-7.922v-33.342h7.922c9.192 0 16.671 7.479 16.671 16.671z"/><path d="m309.812 226.032-24.101-5.42c-.745-.167-1.395-.64-1.785-1.297l-12.602-21.246c-3.242-5.465-8.97-8.727-15.324-8.727s-12.082 3.263-15.324 8.727l-12.602 21.247c-.389.657-1.04 1.129-1.785 1.297l-24.1 5.42c-6.199 1.394-11.072 5.834-13.036 11.877-1.963 6.043-.631 12.499 3.565 17.271l16.312 18.55c.504.573.753 1.339.682 2.099l-2.293 24.595c-.59 6.326 2.127 12.333 7.267 16.068s11.693 4.462 17.527 1.947l22.683-9.782c.701-.303 1.506-.302 2.207 0l22.683 9.782c5.758 2.482 12.456 1.738 17.527-1.947 5.14-3.735 7.857-9.742 7.267-16.068l-2.293-24.595c-.071-.76.178-1.526.682-2.099l16.312-18.55c4.196-4.771 5.528-11.228 3.565-17.271-1.962-6.044-6.836-10.484-13.034-11.878zm-1.816 19.223-16.312 18.55c-3.224 3.666-4.813 8.557-4.36 13.419l2.293 24.595c.195 2.081-1.954 3.65-3.879 2.818l-22.683-9.781c-4.46-1.924-9.65-1.923-14.11 0l-22.683 9.781c-1.924.832-4.073-.737-3.879-2.818l2.293-24.595c.453-4.862-1.136-9.753-4.36-13.419l-16.312-18.55c-1.385-1.575-.556-4.102 1.481-4.56l24.1-5.42c4.764-1.071 8.925-4.094 11.415-8.293l12.602-21.246c1.067-1.8 3.726-1.801 4.795 0l12.601 21.245c2.491 4.201 6.652 7.224 11.415 8.294l24.1 5.42c2.038.458 2.869 2.985 1.483 4.56z"/><path d="m371.056 102.19h-55.005l10.734-21.606c1.846-3.717.33-8.227-3.386-10.073-3.715-1.848-8.227-.331-10.073 3.386l-14.056 28.292h-27.71l-7.168-14.428 36.134-72.732h42.047l-15.848 31.899c-1.846 3.717-.33 8.227 3.387 10.073 3.715 1.847 8.227.331 10.073-3.386l21.243-42.757c2.438-4.911-1.258-10.858-6.731-10.858h-58.829c-2.853 0-5.46 1.616-6.73 4.171l-33.138 66.701-33.138-66.701c-1.27-2.555-3.877-4.171-6.73-4.171h-58.829c-5.473 0-9.17 5.947-6.73 10.858l45.375 91.332h-55.004c-16.882 0-30.616 13.734-30.616 30.616v62.421c0 4.15 3.365 7.515 7.515 7.515s7.515-3.365 7.515-7.515v-62.421c0-8.594 6.992-15.587 15.587-15.587h62.471l11.046 22.233h-5.376c-4.15 0-7.515 3.364-7.515 7.515 0 4.15 3.364 7.515 7.515 7.515h93.83c4.15 0 7.515-3.365 7.515-7.515s-3.364-7.515-7.515-7.515h-12.843l-11.046-22.233h92.029c8.594 0 15.587 6.992 15.587 15.587v258.234c0 4.15 3.364 7.515 7.515 7.515 4.15 0 7.515-3.365 7.515-7.515v-258.234c-.001-16.882-13.736-30.616-30.617-30.616zm-139.813 37.262-61.815-124.423h42.047l61.815 124.423z"/><path d="m394.157 413.584c-4.15 0-7.515 3.364-7.515 7.515v60.285c0 8.595-6.992 15.587-15.587 15.587h-230.111c-8.594 0-15.587-6.992-15.587-15.587v-256.098c0-4.15-3.364-7.515-7.515-7.515s-7.515 3.365-7.515 7.515v256.098c0 16.882 13.734 30.616 30.616 30.616h230.112c16.882 0 30.616-13.734 30.616-30.616v-60.285c.001-4.151-3.364-7.515-7.514-7.515z"/></g></svg>