<svg height="512" viewBox="0 0 64 64" width="512" xmlns="http://www.w3.org/2000/svg"><path d="m60 4h-7v-1a1 1 0 0 0 -1-1h-40a1 1 0 0 0 -1 1v1h-7v-2h-2v6h2v-2h2v40h-4v2h9v.667l-8.8 11.733a1 1 0 0 0 .8 1.6h58a1 1 0 0 0 .8-1.6l-8.8-11.733v-.667h9v-2h-4v-40h2v2h2v-6h-2zm-9 29.928a7.968 7.968 0 0 1 -4.679 1.043 8 8 0 0 0 -4.638-13.942 7.988 7.988 0 0 1 9.317-.957zm-43 12.072v-40h3v40zm51 14h-54l7.8-10.4a1 1 0 0 0 .2-.6v-45h38v13.852a9.936 9.936 0 0 0 -12.442 3.8 1 1 0 0 0 1.072 1.509 6 6 0 0 1 3.779 11.329 1 1 0 0 0 .048 1.851 9.853 9.853 0 0 0 7.543-.2v12.859a1 1 0 0 0 .2.6zm-3-14h-3v-40h3z"/><path d="m30 15h18a1 1 0 0 0 1-1v-1a3.748 3.748 0 0 0 -4-4h-.311c-.909-2.017-2.778-3-5.689-3-2.73 0-4.878 1.153-5.712 3h-.288a3.913 3.913 0 0 0 -4 4v1a1 1 0 0 0 1 1zm3-4h1a1 1 0 0 0 .974-.772c.383-1.645 2.409-2.228 4.026-2.228 2.927 0 3.674 1.1 4.045 2.3a1 1 0 0 0 .955.7h1a1.793 1.793 0 0 1 2 2h-16a1.913 1.913 0 0 1 2-2z"/><path d="m31 19h-.311c-.909-2.017-2.778-3-5.689-3-2.73 0-4.878 1.153-5.712 3h-.288a3.913 3.913 0 0 0 -4 4v1a1 1 0 0 0 1 1h18a1 1 0 0 0 1-1v-1a3.748 3.748 0 0 0 -4-4zm-14 4a1.913 1.913 0 0 1 2-2h1a1 1 0 0 0 .974-.772c.383-1.645 2.409-2.228 4.026-2.228 2.927 0 3.674 1.1 4.045 2.3a1 1 0 0 0 .955.7h1a1.793 1.793 0 0 1 2 2z"/><path d="m17 8h2v-2h-4v8h2z"/><path d="m49 40h-2v10.333l6.2 8.267 1.6-1.2-5.8-7.733z"/><path d="m37 29h2v2h-2z"/><path d="m41 26h2v2h-2z"/><path d="m25 34h-6v-3h-2v20h2v-3h6v3h2v-20h-2zm0 2v2h-6v-2zm0 4v2h-6v-2zm-6 6v-2h6v2z"/></svg>