<svg id="Layer_1" enable-background="new 0 0 512 512" height="512" viewBox="0 0 512 512" width="512" xmlns="http://www.w3.org/2000/svg"><g><path d="m503.706 290.783-32.134-16.065c-5.774-2.89-12.749-1.756-17.314 2.81l-27.739 27.739h-35.306l39.239-91.558c1.986-4.635 1.511-9.957-1.265-14.167-2.775-4.209-7.48-6.742-12.522-6.742h-48.2c-4.845 0-9.391 2.34-12.206 6.281l-75.847 106.186h-40.48c-26.304 0-47.134 21.351-47.134 47.134 0 25.916 20.956 47.133 47.134 47.133h40.48l75.847 106.186c2.815 3.941 7.361 6.281 12.206 6.281h48.2c5.042 0 9.747-2.533 12.522-6.742 2.775-4.21 3.251-9.532 1.265-14.167l-39.239-91.558h35.305l27.74 27.74c4.564 4.566 11.542 5.697 17.314 2.81l32.134-16.067c6.677-3.338 9.883-11.078 7.522-18.159l-14.485-43.458 14.485-43.457c2.36-7.081-.846-14.821-7.522-18.16zm-37.005 66.361 11.953 35.857-10.828 5.414-24.488-24.488c-2.813-2.813-6.628-4.394-10.606-4.394h-64.267c-5.042 0-9.747 2.533-12.522 6.742-2.775 4.21-3.251 9.532-1.265 14.167l39.239 91.558h-17.732l-75.847-106.186c-2.815-3.941-7.361-6.281-12.206-6.281h-48.2c-9.357 0-17.134-7.567-17.134-17.133 0-9.337 7.549-17.134 17.134-17.134h48.2c4.845 0 9.391-2.34 12.206-6.281l75.846-106.185h17.732l-39.239 91.558c-1.986 4.635-1.511 9.957 1.265 14.167 2.775 4.209 7.48 6.742 12.522 6.742h64.267c3.979 0 7.794-1.58 10.606-4.394l24.488-24.488 10.828 5.414-11.953 35.858c-1.026 3.079-1.026 6.407.001 9.487z"/><path d="m8.294 221.216 32.134 16.067c5.772 2.888 12.75 1.757 17.314-2.81l27.74-27.74h35.305l-39.239 91.558c-1.986 4.635-1.511 9.957 1.265 14.167 2.775 4.209 7.48 6.742 12.522 6.742h48.2c4.845 0 9.391-2.34 12.206-6.281l75.847-106.186h40.48c25.799 0 47.134-20.847 47.134-47.133 0-25.808-20.855-47.134-47.134-47.134h-40.48l-75.846-106.185c-2.816-3.941-7.362-6.281-12.206-6.281h-48.2c-5.042 0-9.747 2.533-12.522 6.742-2.775 4.21-3.251 9.532-1.265 14.167l39.239 91.558h-35.306l-27.739-27.739c-4.565-4.565-11.54-5.699-17.314-2.81l-32.135 16.065c-6.677 3.339-9.883 11.079-7.522 18.16l14.485 43.457-14.485 43.457c-2.36 7.081.846 14.821 7.522 18.159zm37.005-66.359-11.953-35.858 10.828-5.414 24.488 24.488c2.813 2.813 6.628 4.394 10.606 4.394h64.267c5.042 0 9.747-2.533 12.522-6.742 2.775-4.21 3.251-9.532 1.265-14.167l-39.239-91.558h17.732l75.847 106.186c2.815 3.941 7.361 6.281 12.206 6.281h48.2c9.595 0 17.134 7.807 17.134 17.134 0 9.578-7.79 17.133-17.134 17.133h-48.2c-4.845 0-9.391 2.34-12.206 6.281l-75.846 106.185h-17.732l39.239-91.558c1.986-4.635 1.511-9.957-1.265-14.167-2.775-4.209-7.48-6.742-12.522-6.742h-64.267c-3.979 0-7.794 1.58-10.606 4.394l-24.488 24.488-10.828-5.414 11.953-35.857c1.026-3.079 1.026-6.407-.001-9.487z"/><path d="m320.266 30h48.2c44.884 0 81.399 36.516 81.399 81.4v11.986l-6.526-6.526c-5.857-5.857-15.355-5.857-21.213 0s-5.858 15.355 0 21.213l32.133 32.133c2.929 2.93 6.768 4.394 10.606 4.394s7.678-1.465 10.606-4.394l32.134-32.133c5.858-5.857 5.858-15.354 0-21.213-5.856-5.859-15.354-5.857-21.213 0l-6.527 6.527v-11.987c.001-61.426-49.973-111.4-111.398-111.4h-48.2c-8.284 0-15 6.716-15 15s6.715 15 14.999 15z"/><path d="m191.734 482h-48.2c-44.884 0-81.399-36.516-81.399-81.4v-11.986l6.526 6.526c5.857 5.857 15.355 5.857 21.213 0s5.858-15.355 0-21.213l-32.134-32.133c-2.929-2.93-6.768-4.394-10.606-4.394s-7.678 1.465-10.606 4.394l-32.134 32.133c-5.858 5.857-5.858 15.354 0 21.213 5.856 5.859 15.354 5.857 21.213 0l6.527-6.527v11.987c0 61.427 49.974 111.4 111.399 111.4h48.2c8.284 0 15-6.716 15-15s-6.715-15-14.999-15z"/></g></svg>