<?xml version="1.0"?>
<svg xmlns="http://www.w3.org/2000/svg" viewBox="0 0 512 512" width="512" height="512"><g id="outline"><path d="M472,288a8,8,0,0,0,8-8V216a8,8,0,0,0-8-8h-8V132a28.032,28.032,0,0,0-28-28H400V36a20.023,20.023,0,0,0-20-20H132a20.023,20.023,0,0,0-20,20v68H76a28.032,28.032,0,0,0-28,28v76H40a8,8,0,0,0-8,8v64a8,8,0,0,0,8,8h8V448H44a12.013,12.013,0,0,0-12,12v28a8,8,0,0,0,8,8H472a8,8,0,0,0,8-8V460a12.013,12.013,0,0,0-12-12h-4V288ZM128,36a4,4,0,0,1,4-4H380a4,4,0,0,1,4,4V172a4,4,0,0,1-4,4H132a4,4,0,0,1-4-4ZM64,132a12.013,12.013,0,0,1,12-12h36v52a20.023,20.023,0,0,0,20,20H380a20.023,20.023,0,0,0,20-20V120h36a12.013,12.013,0,0,1,12,12v76H64ZM464,480H48V464H464ZM216,320H88a8,8,0,0,0-8,8V448H64V288H240V448H224V328A8,8,0,0,0,216,320Zm-8,16V448H160V336Zm-64,0V448H96V336Zm272,81.376V368a8,8,0,0,0-5.029-7.428l-40-16A8,8,0,0,0,360,352v24a8,8,0,0,0,4.422,7.155l10.535,5.268L369.442,416H296a23.992,23.992,0,0,0-22.624,32H256V288H448V448H430.624A23.985,23.985,0,0,0,416,417.376Zm-28.422-40.531L376,371.056v-7.24l24,9.6V416H385.758l6.087-30.431A8,8,0,0,0,387.578,376.845ZM385.376,448H318.624a23.944,23.944,0,0,0,0-16h66.752a23.944,23.944,0,0,0,0,16ZM408,432a8,8,0,1,1-8,8A8.009,8.009,0,0,1,408,432Zm-104,8a8,8,0,1,1-8-8A8.009,8.009,0,0,1,304,440ZM48,272V224H464v48Z"/><path d="M164,144h8a19.991,19.991,0,0,0,4.329-.485A20.018,20.018,0,0,0,196,160h8a20.023,20.023,0,0,0,20-20V128h64v12a20.023,20.023,0,0,0,20,20h8a20.018,20.018,0,0,0,19.671-16.485A19.991,19.991,0,0,0,340,144h8a20.023,20.023,0,0,0,20-20V84a20.023,20.023,0,0,0-20-20h-8a19.991,19.991,0,0,0-4.329.485A20.018,20.018,0,0,0,316,48h-8a20.023,20.023,0,0,0-20,20V80H224V68a20.023,20.023,0,0,0-20-20h-8a20.018,20.018,0,0,0-19.671,16.485A19.991,19.991,0,0,0,172,64h-8a20.023,20.023,0,0,0-20,20v40A20.023,20.023,0,0,0,164,144ZM336,84a4,4,0,0,1,4-4h8a4,4,0,0,1,4,4v40a4,4,0,0,1-4,4h-8a4,4,0,0,1-4-4Zm-32,36V68a4,4,0,0,1,4-4h8a4,4,0,0,1,4,4v72a4,4,0,0,1-4,4h-8a4,4,0,0,1-4-4ZM224,96h64v16H224Zm-32,28V68a4,4,0,0,1,4-4h8a4,4,0,0,1,4,4v72a4,4,0,0,1-4,4h-8a4,4,0,0,1-4-4ZM160,84a4,4,0,0,1,4-4h8a4,4,0,0,1,4,4v40a4,4,0,0,1-4,4h-8a4,4,0,0,1-4-4Z"/><rect x="112" y="376" width="16" height="16"/><rect x="176" y="376" width="16" height="16"/></g></svg>
