<svg height="480pt" viewBox="0 0 480 480" width="480pt" xmlns="http://www.w3.org/2000/svg"><path d="m440 264v-216h24v-24c0-13.601562-10.398438-24-24-24h-400c-13.601562 0-24 10.398438-24 24v24h24v216h16v-216h368v216zm-408-240c0-4.800781 3.199219-8 8-8h400c4.800781 0 8 3.199219 8 8v8h-416zm0 0"/><path d="m408 336v-32c0-13.601562-10.398438-24-24-24h-288c-13.601562 0-24 10.398438-24 24v32h144v96h-16c-13.601562 0-24 10.398438-24 24v24h128v-24c0-13.601562-10.398438-24-24-24h-16v-96zm-320-32c0-4.800781 3.199219-8 8-8h288c4.800781 0 8 3.199219 8 8v16h-304zm200 152v8h-96v-8c0-4.800781 3.199219-8 8-8h80c4.800781 0 8 3.199219 8 8zm-40-24h-16v-96h16zm0 0"/><path d="m456 280c-13.601562 0-24 10.398438-24 24v48c0 4.800781-3.199219 8-8 8h-48c-13.601562 0-24 10.398438-24 24s10.398438 24 24 24h48v40h-8c-13.601562 0-24 10.398438-24 24v8h16v-8c0-4.800781 3.199219-8 8-8h8v16h16v-16h8c4.800781 0 8 3.199219 8 8v8h16v-8c0-13.601562-10.398438-24-24-24h-8v-40c22.398438 0 40-17.601562 40-40v-64c0-13.601562-10.398438-24-24-24zm8 88c0 13.601562-10.398438 24-24 24h-64c-4.800781 0-8-3.199219-8-8s3.199219-8 8-8h48c13.601562 0 24-10.398438 24-24v-48c0-4.800781 3.199219-8 8-8s8 3.199219 8 8zm0 0"/><path d="m40 408v40h-8c-13.601562 0-24 10.398438-24 24v8h16v-8c0-4.800781 3.199219-8 8-8h8v16h16v-16h8c4.800781 0 8 3.199219 8 8v8h16v-8c0-13.601562-10.398438-24-24-24h-8v-40h48c13.601562 0 24-10.398438 24-24s-10.398438-24-24-24h-48c-4.800781 0-8-3.199219-8-8v-48c0-13.601562-10.398438-24-24-24s-24 10.398438-24 24v64c0 22.398438 17.601562 40 40 40zm-24-104c0-4.800781 3.199219-8 8-8s8 3.199219 8 8v48c0 13.601562 10.398438 24 24 24h48c4.800781 0 8 3.199219 8 8s-3.199219 8-8 8h-64c-13.601562 0-24-10.398438-24-24zm0 0"/><path d="m248 88h152v16h-152zm0 0"/><path d="m248 128h152v16h-152zm0 0"/><path d="m248 168h152v16h-152zm0 0"/><path d="m248 208h152v16h-152zm0 0"/><path d="m152 80c-40 0-72 32-72 72s32 72 72 72 72-32 72-72v-8h-64v-64zm55.199219 80c-4.800781 30.398438-32.800781 52-63.199219 47.199219s-52-32.800781-47.199219-63.199219c3.199219-24.800781 23.199219-44 47.199219-47.199219v63.199219zm0 0"/><path d="m232 120c0-26.398438-21.601562-48-48-48h-8v56h56zm-40-8v-23.199219c11.199219 3.199219 20 12 23.199219 23.199219zm0 0"/></svg>